<svg width="36" height="36" viewBox="0 0 36 36" fill="none" xmlns="http://www.w3.org/2000/svg">
<g clip-path="url(#clip0_3_51)">
<path d="M30.6736 30.6742H25.3395V22.3206C25.3395 20.3286 25.3039 17.7643 22.5652 17.7643C19.7871 17.7643 19.362 19.9347 19.362 22.1756V30.6736H14.0279V13.4953H19.1486V15.8429H19.2203C20.2645 14.0576 22.2059 12.9913 24.2727 13.068C29.679 13.068 30.6758 16.6241 30.6758 21.2504L30.6736 30.6742ZM8.00932 11.1471C6.29977 11.1474 4.91365 9.76179 4.91334 8.05219C4.91303 6.34259 6.29865 4.95644 8.00821 4.95614C9.71777 4.95583 11.1039 6.34148 11.1042 8.05108C11.1043 8.87206 10.7784 9.65947 10.198 10.2401C9.61756 10.8207 8.83028 11.147 8.00932 11.1471ZM10.6764 30.6742H5.33673V13.4953H10.6764V30.6742ZM33.3328 0.00256229H2.65636C1.20652 -0.0137994 0.0175724 1.14757 -0.00012207 2.59742V33.4018C0.0169665 34.8524 1.20582 36.0149 2.65636 35.9997H33.3328C34.7862 36.0177 35.9798 34.8552 35.9999 33.4018V2.5952C35.9792 1.14249 34.7855 -0.0188198 33.3328 0.000106006" fill="#0A66C2"/>
</g>
<defs>
<clipPath id="clip0_3_51">
<rect width="36" height="36" fill="white"/>
</clipPath>
</defs>
</svg>
