<!-- created by svgstack.com | Attribution is required. --><svg width="201" height="145" viewBox="0 0 201 145" fill="none" xmlns="http://www.w3.org/2000/svg"><g clip-path="url(#clip0_104_674)"><path d="M198.948 54.5573C198.406 54.1257 193.341 50.2948 182.663 50.2948C179.843 50.3072 177.03 50.5495 174.249 51.0195C172.182 36.8256 160.47 29.9054 159.945 29.5948L157.077 27.938L155.191 30.6648C152.83 34.3277 151.106 38.3655 150.093 42.6067C148.181 50.7091 149.344 58.3192 153.452 64.8253C148.491 67.595 140.534 68.2767 138.924 68.337H7.18069C3.7396 68.3419 0.947321 71.1281 0.928568 74.5758C0.774903 86.1393 2.73028 97.6342 6.69843 108.494C11.2367 120.419 17.9885 129.203 26.7726 134.579C36.6158 140.619 52.6079 144.07 70.7356 144.07C78.9253 144.096 87.099 143.353 95.1501 141.852C106.342 139.793 117.112 135.874 127.014 130.255C135.173 125.522 142.515 119.499 148.759 112.42C159.196 100.582 165.414 87.397 170.038 75.6802H171.881C183.309 75.6802 190.336 71.0981 194.211 67.2585C196.787 64.8096 198.798 61.8265 200.102 58.5178L200.92 56.1192L198.948 54.5573Z" fill="#218BEA"/><path d="M19.3923 64.4717H37.0464C37.8978 64.4717 38.5878 63.7801 38.5878 62.9273V47.1713C38.5926 46.3182 37.9062 45.6229 37.0551 45.6182C37.0523 45.6182 37.0492 45.6182 37.0464 45.6182H19.3923C18.5408 45.6182 17.8508 46.3098 17.8508 47.1626V62.927C17.8508 63.7801 18.5408 64.4717 19.3923 64.4717Z" fill="#218BEA"/><path d="M43.7205 64.4717H61.3746C62.2261 64.4717 62.9161 63.7801 62.9161 62.9273V47.1713C62.9208 46.3182 62.2345 45.6229 61.383 45.6182C61.3802 45.6182 61.3772 45.6182 61.3744 45.6182H43.7202C42.864 45.6182 42.1702 46.3134 42.1702 47.1713V62.927C42.1752 63.7815 42.8677 64.4717 43.7205 64.4717Z" fill="#218BEA"/><path d="M68.4189 64.4717H86.0727C86.9246 64.4717 87.6144 63.7801 87.6144 62.9273V47.1713C87.6195 46.3182 86.9326 45.6229 86.0815 45.6182C86.0786 45.6182 86.0757 45.6182 86.0727 45.6182H68.4187C67.5672 45.6182 66.8772 46.3098 66.8772 47.1626V62.927C66.8775 63.7801 67.5677 64.4717 68.4189 64.4717Z" fill="#218BEA"/><path d="M92.8246 64.4717H110.479C111.332 64.4717 112.025 63.7818 112.029 62.9273V47.1713C112.029 46.3134 111.335 45.6182 110.479 45.6182H92.8246C91.9735 45.6182 91.2837 46.3098 91.2837 47.1626V62.927C91.2837 63.7801 91.9735 64.4717 92.8246 64.4717Z" fill="#218BEA"/><path d="M43.7205 41.8044H61.3746C62.2272 41.7996 62.916 41.1056 62.916 40.2513V24.4956C62.916 23.6425 62.2257 22.9512 61.3746 22.9512H43.7205C42.8679 22.9512 42.1752 23.6411 42.1704 24.4956V40.2513C42.1752 41.1072 42.8662 41.7996 43.7205 41.8044Z" fill="#218BEA"/><path d="M68.4188 41.8044H86.0727C86.9252 41.7996 87.6143 41.1056 87.6143 40.2513V24.4956C87.6143 23.6425 86.9245 22.9512 86.0727 22.9512H68.4188C67.5674 22.9512 66.8774 23.6428 66.8774 24.4956V40.2513C66.8774 41.1056 67.5663 41.7996 68.4188 41.8044Z" fill="#218BEA"/><path d="M92.8246 41.8044H110.479C111.333 41.7996 112.025 41.1072 112.029 40.2513V24.4956C112.025 23.6411 111.332 22.9512 110.479 22.9512H92.8246C91.9735 22.9512 91.2837 23.6428 91.2837 24.4956V40.2513C91.2837 41.1056 91.972 41.7996 92.8246 41.8044Z" fill="#218BEA"/><path d="M92.8246 19.1286H110.479C111.332 19.1286 112.025 18.4385 112.029 17.5843V1.81956C112.025 0.965043 111.332 0.275146 110.479 0.275146H92.8246C91.9735 0.275146 91.2837 0.966445 91.2837 1.81956V17.584C91.2837 18.4371 91.9735 19.1286 92.8246 19.1286Z" fill="#218BEA"/><path d="M117.446 64.4717H135.1C135.953 64.4717 136.646 63.7818 136.65 62.9273V47.1713C136.65 46.3134 135.956 45.6182 135.1 45.6182H117.446C116.595 45.6182 115.905 46.3098 115.905 47.1626V62.927C115.905 63.7801 116.595 64.4717 117.446 64.4717Z" fill="#218BEA"/></g><defs><clipPath id="clip0_104_674"><rect width="200" height="143.796" fill="white" transform="translate(0.920166 0.275146)"/></clipPath></defs></svg> 