<!-- created by svgstack.com | Attribution is required. --><svg width="201" height="201" viewBox="0 0 201 201" fill="none" xmlns="http://www.w3.org/2000/svg"><g clip-path="url(#clip0_103_230)"><path d="M113.657 1.18199C94.0396 -1.33723 74.1158 2.01755 56.4047 10.8221C38.6939 19.6267 23.9917 33.4855 14.1574 50.646C4.3232 67.8068 -0.201347 87.498 1.15596 107.23C2.51327 126.962 9.69148 145.849 21.7828 161.5C33.8741 177.153 50.3355 188.869 69.0852 195.165C87.8346 201.462 108.03 202.056 127.118 196.874C146.206 191.693 163.329 180.967 176.321 166.055C189.313 151.141 197.59 132.71 200.107 113.092C203.482 86.788 196.269 60.221 180.057 39.2343C163.845 18.2474 139.961 4.55981 113.657 1.18199Z" fill="#FF6C37"/><path d="M73.2168 106.687C73.2557 106.766 73.3212 106.829 73.4012 106.865C73.4812 106.902 73.5718 106.91 73.6568 106.887L89.6568 103.437L82.9268 96.6167L73.3368 106.207C73.2612 106.258 73.2075 106.335 73.185 106.424C73.1631 106.512 73.1744 106.606 73.2168 106.687Z" fill="white"/><path d="M148.138 37.9879C145.907 37.9901 143.707 38.4925 141.697 39.4579C139.686 40.4233 137.919 41.8273 136.524 43.5664C135.128 45.3054 134.141 47.3354 133.634 49.5067C133.126 51.678 133.112 53.9354 133.593 56.1128C134.075 58.2901 135.038 60.3318 136.411 62.0876C137.785 63.8434 139.536 65.2685 141.534 66.2585C143.533 67.2485 145.727 67.7772 147.957 67.8066C150.186 67.836 152.393 67.3647 154.418 66.4279L144.277 56.2879C144.161 56.1717 144.069 56.0338 144.006 55.8819C143.942 55.7301 143.91 55.5673 143.91 55.4029C143.91 55.2385 143.942 55.0755 144.006 54.9237C144.069 54.7719 144.161 54.6339 144.277 54.5179L157.527 41.2779C154.867 39.1383 151.552 37.9769 148.138 37.9879Z" fill="white"/><path d="M159.347 42.9978L146.927 55.3678L156.667 65.1078C157.384 64.6041 158.054 64.0347 158.667 63.4078C161.336 60.7204 162.89 57.1223 163.017 53.3364C163.142 49.5505 161.832 45.8571 159.347 42.9978Z" fill="white"/><path d="M134.496 65.8281H134.276C134.018 65.8255 133.76 65.8492 133.506 65.8981H133.417C133.138 65.9581 132.864 66.0381 132.596 66.1381L132.387 66.2381C132.185 66.3218 131.991 66.4218 131.806 66.5381L131.587 66.6781C131.345 66.8449 131.117 67.0324 130.906 67.2381L94.0764 104.077L98.6364 108.637L137.637 74.4081C137.857 74.2142 138.057 73.9999 138.237 73.7681L138.406 73.5481C138.54 73.3524 138.66 73.1487 138.767 72.9381C138.826 72.8181 138.876 72.6981 138.926 72.5781C138.994 72.4181 139.05 72.2542 139.096 72.0881C139.096 71.9681 139.167 71.8481 139.196 71.7281C139.246 71.4799 139.28 71.2299 139.296 70.9781V70.6481C139.296 70.4681 139.296 70.2881 139.296 70.1081C139.296 69.9281 139.296 69.8681 139.246 69.7481C139.061 68.8042 138.6 67.9361 137.923 67.2542C137.245 66.5731 136.38 66.1074 135.437 65.9181H135.246C134.999 65.8699 134.748 65.8399 134.496 65.8281Z" fill="white"/><path d="M84.6467 94.8474L92.2067 102.367L129.137 65.4372C130.339 64.2622 131.905 63.5322 133.576 63.3672C127.047 58.3672 119.926 59.6772 84.6467 94.8474Z" fill="white"/><path d="M139.717 75.8479L139.267 76.2879L100.267 110.508L106.897 117.128C123.336 101.578 137.927 86.7679 139.717 75.8479Z" fill="white"/><path d="M42.438 156.017C42.4582 156.088 42.4998 156.151 42.5571 156.198C42.6143 156.244 42.6844 156.272 42.758 156.277L59.7579 157.447L50.228 147.917L42.518 155.617C42.468 155.67 42.4339 155.735 42.4197 155.805C42.4055 155.877 42.4119 155.95 42.438 156.017Z" fill="white"/><path d="M52.0061 146.148L62.0561 156.198C62.1754 156.324 62.3351 156.407 62.508 156.431C62.681 156.455 62.8569 156.418 63.0061 156.327C63.1619 156.25 63.286 156.121 63.3572 155.963C63.4284 155.804 63.4421 155.624 63.3961 155.457L61.7061 148.237C61.5967 147.769 61.6463 147.278 61.8475 146.842C62.0484 146.406 62.3894 146.049 62.8161 145.827C80.436 136.998 94.646 127.907 105.076 118.827L98.076 111.827L83.076 115.057L52.0061 146.148Z" fill="white"/><path d="M95.9276 109.708L92.1676 105.948L86.9676 111.138C86.9301 111.183 86.9094 111.239 86.9094 111.298C86.9094 111.356 86.9301 111.413 86.9676 111.458C86.9913 111.511 87.0344 111.554 87.0876 111.578C87.1413 111.601 87.2013 111.605 87.2576 111.588L95.9276 109.708Z" fill="white"/><path d="M159.697 51.058C159.646 50.9005 159.561 50.756 159.45 50.6339C159.338 50.5118 159.202 50.4151 159.05 50.3503C158.897 50.2854 158.733 50.2538 158.567 50.2576C158.402 50.2616 158.239 50.3009 158.09 50.3729C157.941 50.4448 157.809 50.548 157.703 50.6751C157.597 50.8024 157.519 50.9508 157.476 51.1104C157.432 51.27 157.423 51.4372 157.45 51.6005C157.475 51.764 157.536 51.92 157.627 52.058C157.926 52.6594 158.045 53.3344 157.968 54.0015C157.893 54.6687 157.624 55.2996 157.197 55.818C157.058 55.9873 156.968 56.1931 156.94 56.4112C156.912 56.6293 156.947 56.8509 157.04 57.05C157.133 57.2491 157.282 57.4176 157.467 57.5359C157.652 57.6541 157.868 57.7173 158.087 57.718C158.258 57.7161 158.425 57.6776 158.579 57.6052C158.732 57.5326 158.868 57.4279 158.977 57.298C159.686 56.4374 160.13 55.3909 160.258 54.284C160.384 53.1773 160.19 52.0571 159.697 51.058Z" fill="#FF6C37"/></g><defs><clipPath id="clip0_103_230"><rect width="200" height="200" fill="white" transform="translate(0.920166 0.367432)"/></clipPath></defs></svg> 